# xmcd
#
# Track frame offsets:
#	150
#	21625
#	25862
#	66502
#	86800
#	100590
#	160475
#	172780
#	186962
#
# Disc length: 2731 seconds
#
# Revision: 1
# Processed by: cddbd v1.5.1PL0 Copyright (c) Steve Scherf et al.
# Submitted via: CDex 1.50Beta5
#
DISCID=740aa909
DTITLE=W.H.O - Wizardry CURSE OF THE ANCIENT EMPEROR
DYEAR=1900
DGENRE=Other
TTITLE0=オープニング・テーマ〜アルマール城下
TTITLE1=ギルガメッシュの酒場
TTITLE2=:パート1 旅路の始まり
TTITLE3=呪いの地下迷宮
TTITLE4=戦いの瞬間
TTITLE5=:パート2 流砂の彼方へ
TTITLE6=キャンプ(眠りにつく前に)
TTITLE7=最後の戦い
TTITLE8=フィナーレ
EXTD=
EXTT0=
EXTT1=
EXTT2=
EXTT3=
EXTT4=
EXTT5=
EXTT6=
EXTT7=
EXTT8=
PLAYORDER=
